<svg width="23" height="20" viewBox="0 0 23 20" fill="none" xmlns="http://www.w3.org/2000/svg">
<path d="M21.2265 1.76815C20.6645 1.20759 19.9972 0.762921 19.2628 0.459537C18.5284 0.156152 17.7412 0 16.9463 0C16.1513 0 15.3641 0.156152 14.6297 0.459537C13.8953 0.762921 13.228 1.20759 12.666 1.76815L11.4997 2.93095L10.3334 1.76815C9.19819 0.636397 7.65854 0.000586625 6.05315 0.000586637C4.44775 0.000586649 2.90811 0.636397 1.77293 1.76815C0.637741 2.89989 1.19611e-08 4.43487 0 6.03541C-1.19611e-08 7.63594 0.637741 9.17092 1.77293 10.3027L2.93926 11.4655L11.4997 20L20.0602 11.4655L21.2265 10.3027C21.7887 9.74238 22.2348 9.07714 22.5391 8.34495C22.8434 7.61276 23 6.82796 23 6.03541C23 5.24285 22.8434 4.45806 22.5391 3.72587C22.2348 2.99368 21.7887 2.32844 21.2265 1.76815Z" fill="#FFC6C6"/>
</svg>
