<svg width="12" height="15" viewBox="0 0 12 15" fill="none" xmlns="http://www.w3.org/2000/svg">
<path d="M10.9634 5.98172C10.9634 9.8564 5.98172 13.1775 5.98172 13.1775C5.98172 13.1775 1 9.8564 1 5.98172C1 4.66049 1.52486 3.39337 2.45911 2.45911C3.39337 1.52486 4.66049 1 5.98172 1C7.30296 1 8.57008 1.52486 9.50433 2.45911C10.4386 3.39337 10.9634 4.66049 10.9634 5.98172Z" stroke="#218BE1" stroke-width="2" stroke-linecap="round" stroke-linejoin="round"/>
<path d="M5.98173 7.64232C6.89884 7.64232 7.6423 6.89885 7.6423 5.98174C7.6423 5.06463 6.89884 4.32117 5.98173 4.32117C5.06462 4.32117 4.32115 5.06463 4.32115 5.98174C4.32115 6.89885 5.06462 7.64232 5.98173 7.64232Z" stroke="#218BE1" stroke-width="2" stroke-linecap="round" stroke-linejoin="round"/>
</svg>
